<?xml version="1.0" encoding="iso-8859-1"?>
<!-- Generator: Adobe Illustrator 19.0.0, SVG Export Plug-In . SVG Version: 6.00 Build 0)  -->
<svg version="1.1" id="Capa_1" xmlns="http://www.w3.org/2000/svg" xmlns:xlink="http://www.w3.org/1999/xlink" x="0px" y="0px"
	 viewBox="0 0 512 512" style="enable-background:new 0 0 512 512;" xml:space="preserve">
<circle style="fill:#FFD93B;" cx="256" cy="249.696" r="249.696"/>
<path style="fill:#F4C534;" d="M505.696,249.696c0,137.968-111.824,249.696-249.696,249.696
	c-78.496,0-148.576-36.208-194.384-92.944c42.832,34.64,97.392,55.328,156.768,55.328c137.888,0,249.696-111.744,249.696-249.696
	c0-59.376-20.672-113.92-55.328-156.768C469.424,101.136,505.696,171.2,505.696,249.696z"/>
<path style="fill:#FFFFFF;" d="M228.848,233.12c0,43.904-29.776,79.648-66.672,79.648c-36.752,0-66.544-35.744-66.544-79.648
	s29.792-79.648,66.544-79.648C199.072,153.472,228.848,189.216,228.848,233.12z"/>
<path style="fill:#3E4347;" d="M193.344,253.056c0,17.232-13.936,31.168-31.168,31.168c-17.088,0-31.024-13.936-31.024-31.168
	s13.936-31.168,31.024-31.168C179.408,221.888,193.344,235.808,193.344,253.056z"/>
<g>
	
		<ellipse transform="matrix(-0.7071 -0.7071 0.7071 -0.7071 127.9193 534.1857)" style="fill:#FFFFFF;" cx="174.593" cy="240.6" rx="9.216" ry="5.392"/>
	<path style="fill:#FFFFFF;" d="M436.416,216.96c0,52.816-35.824,95.808-80.192,95.808c-44.208,0-80.032-42.992-80.032-95.808
		s35.824-95.808,80.032-95.808C400.576,121.152,436.416,164.144,436.416,216.96z"/>
</g>
<path style="fill:#3E4347;" d="M393.696,240.928c0,20.736-16.752,37.488-37.488,37.488c-20.56,0-37.312-16.752-37.312-37.488
	s16.768-37.488,37.312-37.488C376.944,203.44,393.696,220.208,393.696,240.928z"/>
<ellipse transform="matrix(-0.7071 -0.7071 0.7071 -0.7071 473.8323 648.3831)" style="fill:#FFFFFF;" cx="371.201" cy="226.058" rx="11.088" ry="6.48"/>
<g>
	<path style="fill:#3E4347;" d="M84.384,154.736c-3.28-6.368-0.752-14.176,5.6-17.44l115.392-59.248
		c6.368-3.28,14.192-0.752,17.44,5.6c3.28,6.368,0.752,14.176-5.6,17.44l-115.392,59.248
		C95.568,163.584,87.68,161.152,84.384,154.736z"/>
	<path style="fill:#3E4347;" d="M434.144,112.16c3.28-6.368,0.752-14.176-5.6-17.44L313.152,35.472
		c-6.368-3.28-14.192-0.752-17.44,5.6c-3.28,6.368-0.752,14.176,5.6,17.44l115.392,59.248
		C422.976,121.008,430.864,118.576,434.144,112.16z"/>
</g>
<path style="fill:#F4C534;" d="M336.112,425.232C336.112,509.616,300.24,512,256,512s-80.112-2.384-80.112-86.768
	c0-61.856,35.872-118.16,80.128-118.16S336.112,363.392,336.112,425.232z"/>
<path style="fill:#3E4347;" d="M316.576,425.296c0,67.264-20.288,67.264-60.56,67.264c-40.416,0-60.544,0-60.544-67.264
	c0-51.664,28.88-98.784,60.544-98.784C287.696,326.512,316.576,373.648,316.576,425.296z"/>
<path style="fill:#E24B4B;" d="M198.592,461.12c7.024,31.296,26.112,31.44,57.424,31.44c32.832,0,52.384-0.032,58.48-36.512
	c-11.168-19.04-35.168-29.296-56.912-20.8c-6.288,2.416-12.816,3.744-19.328,4.112C218.88,440.336,205.824,449.088,198.592,461.12z"
	/>
<g>
</g>
<g>
</g>
<g>
</g>
<g>
</g>
<g>
</g>
<g>
</g>
<g>
</g>
<g>
</g>
<g>
</g>
<g>
</g>
<g>
</g>
<g>
</g>
<g>
</g>
<g>
</g>
<g>
</g>
</svg>
