<?xml version="1.0" encoding="iso-8859-1"?>
<!-- Generator: Adobe Illustrator 19.0.0, SVG Export Plug-In . SVG Version: 6.00 Build 0)  -->
<svg version="1.1" id="Capa_1" xmlns="http://www.w3.org/2000/svg" xmlns:xlink="http://www.w3.org/1999/xlink" x="0px" y="0px"
	 viewBox="0 0 512 512" style="enable-background:new 0 0 512 512;" xml:space="preserve">
<g>
	<circle style="fill:#FFD93B;" cx="256" cy="256" r="256"/>
	<path style="fill:#FFD93B;" d="M512,256c0,141.44-114.64,256-256,256c-80.48,0-152.32-37.12-199.28-95.28
		c43.92,35.52,99.84,56.72,160.72,56.72c141.36,0,256-114.56,256-256c0-60.88-21.2-116.8-56.72-160.72
		C474.8,103.68,512,175.52,512,256z"/>
	<path style="fill:#FFD93B;" d="M242.992,211.328c0,39.84-32.32,72.32-72.16,72.32c-40,0-72.32-32.48-72.32-72.32
		c0-40,32.32-72.32,72.32-72.32C210.672,139.008,242.992,171.328,242.992,211.328z"/>
</g>
<circle style="fill:#FFFFFF;" cx="168.272" cy="205.184" r="64"/>
<path style="fill:#E24B4B;" d="M174.224,237.2c-1.312,1.44-3.36,1.84-5.136,1.056c-12.304-5.792-60-29.408-64.544-51.904
	c-3.152-15.648,6.912-30.784,22.496-33.952c12.032-2.432,23.872,3.024,30,12.896c1.84-11.44,10.656-21.12,22.688-23.552
	c15.52-3.088,30.72,6.976,33.872,22.56C218.176,186.864,183.376,227.072,174.224,237.2z"/>
<path style="fill:#D03F3F;" d="M112.752,200.8c15.28,17.36,46.688,32.896,56.352,37.456c1.776,0.784,3.808,0.384,5.136-1.056
	c3.808-4.224,12.096-13.712,20.112-24.944C156.336,236.576,115.936,203.488,112.752,200.8z"/>
<ellipse transform="matrix(-0.9524 -0.3049 0.3049 -0.9524 324.5324 363.0555)" style="fill:#FFFFFF;" cx="190.615" cy="156.187" rx="9.888" ry="5.872"/>
<path style="fill:#FFD93B;" d="M269.008,211.328c0,39.84,32.32,72.32,72.16,72.32c40,0,72.32-32.48,72.32-72.32
	c0-40-32.32-72.32-72.32-72.32C301.328,139.008,269.008,171.328,269.008,211.328z"/>
<circle style="fill:#FFFFFF;" cx="343.728" cy="205.184" r="64"/>
<path style="fill:#E24B4B;" d="M337.776,237.2c1.312,1.44,3.36,1.84,5.136,1.056c12.304-5.792,60-29.408,64.544-51.904
	c3.152-15.648-6.912-30.784-22.496-33.952c-12.048-2.432-23.888,3.024-30,12.896c-1.84-11.44-10.656-21.12-22.688-23.552
	c-15.52-3.088-30.72,6.976-33.888,22.56C293.824,186.864,328.624,227.072,337.776,237.2z"/>
<path style="fill:#D03F3F;" d="M399.248,200.8c-15.28,17.36-46.688,32.896-56.336,37.456c-1.776,0.784-3.808,0.384-5.136-1.056
	c-3.808-4.224-12.096-13.712-20.112-24.944C355.664,236.576,396.064,203.488,399.248,200.8z"/>
<ellipse transform="matrix(-0.3049 -0.9524 0.9524 -0.3049 270.678 510.0263)" style="fill:#FFFFFF;" cx="321.462" cy="156.235" rx="5.872" ry="9.888"/>
<path style="fill:#3E4347;" d="M416.944,333.552c-19.68,70.4-84.16,121.92-160.8,121.92c-76.96,0-141.44-51.84-161.12-122.56
	c-2.24-8.48,6.24-16,14.56-12.96c99.2,35.04,196.8,36.48,292.64,0.64C410.704,317.392,419.344,324.896,416.944,333.552z"/>
<path style="fill:#E24B4B;" d="M256.144,455.472c20,0,39.136-3.584,56.912-10.016c-3.488-15.472-12.256-29.024-24.416-38.448
	c-8.784-6.816-20.672-8.208-30.496-3.008c-4.048,2.08-8.896,3.232-14.448,3.232c-3.232,0-6.352-0.336-9.12-1.152
	c-13.392-3.808-28.064-1.728-37.552,8.672c-6.256,6.768-11.008,14.864-14.064,23.776
	C205.072,449.296,229.84,455.472,256.144,455.472z"/>
<path style="opacity:0.25;fill:#FFFFFF;enable-background:new    ;" d="M286.32,419.344c-1.328,2.912-6.176,3.52-10.832,1.392
	s-7.376-6.176-6.048-9.088c1.264-2.768,6.112-3.376,10.768-1.248C284.848,412.528,287.568,416.576,286.32,419.344z"/>
<g>
	<path style="fill:#3E4347;" d="M422.144,117.936c-20.16-5.2-48.496-9.056-71.952-7.536c-23.136,1.008-56.528,13.232-70.464,12.096
		c10.048-25.104,47.584-31.312,70.32-29.936C378.144,93.168,408.896,106.064,422.144,117.936z"/>
	<path style="fill:#3E4347;" d="M99.536,117.936c13.248-11.872,44-24.768,72.096-25.376c25.008-1.504,60.832,6.224,70.32,29.936
		c-13.376,1.088-46.256-11.04-70.464-12.096C148.208,108.896,119.936,112.688,99.536,117.936z"/>
</g>
<g>
</g>
<g>
</g>
<g>
</g>
<g>
</g>
<g>
</g>
<g>
</g>
<g>
</g>
<g>
</g>
<g>
</g>
<g>
</g>
<g>
</g>
<g>
</g>
<g>
</g>
<g>
</g>
<g>
</g>
</svg>
