<?xml version="1.0" encoding="iso-8859-1"?>
<!-- Generator: Adobe Illustrator 19.0.0, SVG Export Plug-In . SVG Version: 6.00 Build 0)  -->
<svg version="1.1" id="Capa_1" xmlns="http://www.w3.org/2000/svg" xmlns:xlink="http://www.w3.org/1999/xlink" x="0px" y="0px"
	 viewBox="0 0 512 512" style="enable-background:new 0 0 512 512;" xml:space="preserve">
<circle style="fill:#FFD93B;" cx="256" cy="256" r="256"/>
<path style="fill:#F4C534;" d="M512,256c0,141.44-114.64,256-256,256c-80.48,0-152.32-37.12-199.28-95.28
	c43.92,35.52,99.84,56.72,160.72,56.72c141.36,0,256-114.56,256-256c0-60.88-21.2-116.8-56.72-160.72
	C474.8,103.68,512,175.52,512,256z"/>
<g>
	<path style="fill:#3E4347;" d="M303.424,221.168c5.6,23.072,26,39.2,49.648,39.2c23.68,0,44.16-16.128,49.76-39.216
		c1.552-6.432,8-10.368,14.48-8.832c6.432,1.568,10.384,8.048,8.832,14.496c-8.24,33.872-38.288,57.536-73.072,57.536
		c-34.768,0-64.768-23.664-72.96-57.552c-1.568-6.448,2.384-12.928,8.832-14.48C295.536,210.752,301.904,214.848,303.424,221.168z"
		/>
	<path style="fill:#3E4347;" d="M109.168,221.168c5.6,23.072,26,39.2,49.648,39.2c23.68,0,44.16-16.128,49.76-39.216
		c1.568-6.432,8.032-10.368,14.48-8.832c6.432,1.568,10.384,8.048,8.832,14.496c-8.24,33.872-38.288,57.536-73.072,57.536
		c-34.768,0-64.768-23.664-72.96-57.552c-1.568-6.448,2.384-12.928,8.832-14.48C101.28,210.752,107.632,214.848,109.168,221.168z"/>
	<path style="fill:#3E4347;" d="M315.632,385.696c0,33.008-26.768,59.616-59.6,59.616c-33.008,0-59.616-26.608-59.616-59.616
		c0-32.848,26.608-59.616,59.616-59.616C288.864,326.08,315.632,352.848,315.632,385.696z"/>
</g>
<g>
	<path style="fill:#E24B4B;" d="M345.728,105.408v14.128H290.32V106.8c4.336-5.04,27.136-31.344,31.76-35.824
		c-5.312,0.288-23.92,0-29.52,0V57.552h51.344v11.616c-27.28,31.472-20.56,23.648-32.032,36.24
		C321.52,104.848,318.032,105.408,345.728,105.408z"/>
	<path style="fill:#E24B4B;" d="M448.816,80.944v19.6h-76.832V82.88c6.016-6.992,37.632-43.456,44.048-49.664
		c-7.376,0.384-33.184,0-40.944,0v-18.64h71.2v16.096c-37.84,43.648-28.528,32.784-44.432,50.256
		C415.248,80.16,410.4,80.944,448.816,80.944z"/>
</g>
<g>
	<path style="fill:#F4C534;" d="M425.6,204.192l-94.464-35.408c-5.584-2.096-8.416-8.32-6.32-13.904
		c2.096-5.584,8.304-8.416,13.904-6.32l94.464,35.408c5.584,2.096,8.416,8.32,6.32,13.904S431.184,206.288,425.6,204.192z"/>
	<path style="fill:#F4C534;" d="M86.4,204.192l94.464-35.408c5.584-2.096,8.416-8.32,6.32-13.904s-8.304-8.416-13.904-6.32
		l-94.464,35.408c-5.584,2.096-8.416,8.32-6.32,13.904S80.816,206.288,86.4,204.192z"/>
</g>
<g>
</g>
<g>
</g>
<g>
</g>
<g>
</g>
<g>
</g>
<g>
</g>
<g>
</g>
<g>
</g>
<g>
</g>
<g>
</g>
<g>
</g>
<g>
</g>
<g>
</g>
<g>
</g>
<g>
</g>
</svg>
